<svg id="Layer_1" data-name="Layer 1" xmlns="http://www.w3.org/2000/svg" viewBox="0 0 161.21 32.58"><defs><style>.cls-1{fill:#fff;}.cls-2{fill:#f2b98d;}</style></defs><title>taskPriority</title><path class="cls-1" d="M40.5,18.66H38.56V16.93H40.5V12.27h2.08v4.66h3.14v1.73H42.58V24a2.87,2.87,0,0,0,.4,1.78,1.4,1.4,0,0,0,1.14.49,2.33,2.33,0,0,0,1-.18,3.08,3.08,0,0,0,.79-0.55l0.95,1.27A4,4,0,0,1,43.81,28a3.14,3.14,0,0,1-2.51-.92,4.36,4.36,0,0,1-.8-2.89v-5.5Z"/><path class="cls-1" d="M55.18,26.38a3.58,3.58,0,0,1-1.58,1.2,5.41,5.41,0,0,1-2,.39,5.17,5.17,0,0,1-1.33-.17,3.46,3.46,0,0,1-1.2-.58,3,3,0,0,1-.88-1,3.31,3.31,0,0,1-.34-1.56A3.47,3.47,0,0,1,49,21.85a5.23,5.23,0,0,1,3.5-1l0.79,0,0.79,0,0.65,0,0.39,0V20.58a2,2,0,0,0-.73-1.72,3.34,3.34,0,0,0-2-.52,4.67,4.67,0,0,0-1.94.33,7.65,7.65,0,0,0-1.2.68l-1-1.41A5.13,5.13,0,0,1,49,17.48a5.94,5.94,0,0,1,.92-0.43,7.45,7.45,0,0,1,1.2-.32,8.36,8.36,0,0,1,1.55-.13,4.91,4.91,0,0,1,3.27,1,3.53,3.53,0,0,1,1.19,2.86v6.25c0,0.38,0,1,.05,1.26H55.26Zm0-3.79-0.36-.06-0.61-.06-0.74,0-0.76,0a4,4,0,0,0-1.42.21,2.41,2.41,0,0,0-.86.52,1.66,1.66,0,0,0-.43.69,2.51,2.51,0,0,0-.12.73,1.56,1.56,0,0,0,.6,1.33,2.72,2.72,0,0,0,1.67.45,3.18,3.18,0,0,0,1.14-.21,3.39,3.39,0,0,0,1-.55,2.82,2.82,0,0,0,.67-0.81,2,2,0,0,0,.25-0.95V22.59Z"/><path class="cls-1" d="M60.68,24.93a4.37,4.37,0,0,0,1.39.92,4.72,4.72,0,0,0,1.87.35,4,4,0,0,0,1.73-.33,1.1,1.1,0,0,0,.69-1.05,1.28,1.28,0,0,0-.15-0.64,1.33,1.33,0,0,0-.51-0.47,4.41,4.41,0,0,0-.95-0.38q-0.59-.17-1.47-0.38a9.09,9.09,0,0,1-1.24-.37A4.12,4.12,0,0,1,61,22,3,3,0,0,1,60.17,21a2.66,2.66,0,0,1-.3-1.31,2.59,2.59,0,0,1,.36-1.38,3.19,3.19,0,0,1,1-1,4.63,4.63,0,0,1,1.35-.61,5.84,5.84,0,0,1,1.56-.21,6.88,6.88,0,0,1,2.35.36,5.44,5.44,0,0,1,1.72,1L67,19.34a4.17,4.17,0,0,0-1.21-.74,4.43,4.43,0,0,0-1.7-.3,3.38,3.38,0,0,0-1.6.32,1.12,1.12,0,0,0-.6,1.06,1.1,1.1,0,0,0,.8,1,13.29,13.29,0,0,0,2.09.64,13,13,0,0,1,1.42.43,4.38,4.38,0,0,1,1.16.62,2.8,2.8,0,0,1,.79.94,2.88,2.88,0,0,1,.29,1.34,2.7,2.7,0,0,1-.37,1.42,3.24,3.24,0,0,1-1,1,4.65,4.65,0,0,1-1.43.62A6.75,6.75,0,0,1,64,28a6,6,0,0,1-4.58-1.64Z"/><path class="cls-1" d="M70.88,12.26H73v9.09l4.51-4.42H80l-4.07,4L80.76,28H78.29l-3.85-5.68L73,23.72V28H70.88V12.26Z"/><path class="cls-1" d="M82.19,12.26h6.29a7.11,7.11,0,0,1,2.25.33,4.9,4.9,0,0,1,1.72,1,4.25,4.25,0,0,1,1.11,1.6A5.79,5.79,0,0,1,94,17.37a5.46,5.46,0,0,1-.4,2.14,4.92,4.92,0,0,1-1.11,1.64,4.73,4.73,0,0,1-1.69,1,6.26,6.26,0,0,1-2.16.36h-2.4V28h-4V12.26Zm5.94,7.07a1.7,1.7,0,0,0,1.32-.53,2,2,0,0,0,.49-1.36A2.07,2.07,0,0,0,89.47,16a1.71,1.71,0,0,0-1.36-.53H86.19v3.84h1.94Z"/><path class="cls-1" d="M95.5,16.81h3.77l0.14,1.36a4.33,4.33,0,0,1,1.14-1.1,2.93,2.93,0,0,1,1.65-.45,6,6,0,0,1,.8,0,3,3,0,0,1,.59.14l-0.51,3.33A4.64,4.64,0,0,0,102,20q-2.54,0-2.54,2.8V28H95.5V16.81Z"/><path class="cls-1" d="M104.75,12.26H109v3.07h-4.23V12.26Zm0.16,4.55h3.91V28h-3.91V16.81Z"/><path class="cls-1" d="M110.62,22.17a6,6,0,0,1,.43-2.27,5.66,5.66,0,0,1,1.19-1.85,5.5,5.5,0,0,1,1.83-1.24,6.38,6.38,0,0,1,4.72,0,5.51,5.51,0,0,1,1.83,1.24,5.66,5.66,0,0,1,1.19,1.85,6.25,6.25,0,0,1,0,4.54,5.67,5.67,0,0,1-1.19,1.84,5.51,5.51,0,0,1-1.83,1.24,6.39,6.39,0,0,1-4.72,0,5.51,5.51,0,0,1-1.83-1.24A5.67,5.67,0,0,1,111,24.45,6,6,0,0,1,110.62,22.17Zm5.8,2.38a1.94,1.94,0,0,0,1.55-.67,2.82,2.82,0,0,0,0-3.42,2.13,2.13,0,0,0-3.1,0,2.82,2.82,0,0,0,0,3.42A1.94,1.94,0,0,0,116.42,24.55Z"/><path class="cls-1" d="M124.1,16.81h3.77L128,18.18a4.33,4.33,0,0,1,1.14-1.1,2.93,2.93,0,0,1,1.65-.45,6,6,0,0,1,.8,0,3,3,0,0,1,.59.14l-0.51,3.33a4.64,4.64,0,0,0-1.13-.14Q128,20,128,22.8V28H124.1V16.81Z"/><path class="cls-1" d="M133.35,12.26h4.23v3.07h-4.23V12.26Zm0.16,4.55h3.91V28h-3.91V16.81Z"/><path class="cls-1" d="M140.45,19.69h-1.6v-3h1.6V12.27h3.91v4.42H147v3h-2.68v3.84a1.16,1.16,0,0,0,1.27,1.34,1.76,1.76,0,0,0,.73-0.16,4.16,4.16,0,0,0,.66-0.37l1.53,2.4a5.87,5.87,0,0,1-1.64.9,5.43,5.43,0,0,1-1.85.32,5.76,5.76,0,0,1-2.21-.37,3.51,3.51,0,0,1-1.42-1,3.92,3.92,0,0,1-.75-1.58,8.67,8.67,0,0,1-.22-2V19.69Z"/><path class="cls-1" d="M150,28.93a3.39,3.39,0,0,0,.74.39,2.09,2.09,0,0,0,.74.16,1.77,1.77,0,0,0,.88-0.2,1.61,1.61,0,0,0,.6-0.87l0.32-.88-5-10.73h4.44l2.31,6.29,2.2-6.29h4.07l-4.32,10.71q-0.42,1-.82,1.93a7,7,0,0,1-1,1.61,4.3,4.3,0,0,1-1.38,1.11,4.37,4.37,0,0,1-2,.42,5.79,5.79,0,0,1-1.66-.24,5.55,5.55,0,0,1-1.55-.75Z"/><path class="cls-2" d="M32.18,0.4a1.29,1.29,0,0,0-1-.4H1.36A1.31,1.31,0,0,0,.4.4a1.35,1.35,0,0,0-.4,1V31.22a1.35,1.35,0,0,0,.4,1,1.31,1.31,0,0,0,1,.4H31.23a1.29,1.29,0,0,0,1-.4,1.32,1.32,0,0,0,.41-1V1.36A1.32,1.32,0,0,0,32.18.4ZM15.79,28.65H3.95V19.24H15.79v9.41Zm0-15.3H3.95V4H15.79v9.4Zm12.57,8.8-4.94,4.94a1,1,0,0,1-.67.27,0.93,0.93,0,0,1-.67-0.27l-2.25-2.25a1,1,0,0,1,0-1.34,1,1,0,0,1,1.35,0l1.57,1.57L27,20.8a1,1,0,0,1,1.35,0A0.94,0.94,0,0,1,28.36,22.15Zm0-15.29L23.42,11.8a1,1,0,0,1-.67.27,0.93,0.93,0,0,1-.67-0.27L19.83,9.55a1,1,0,0,1,0-1.35,1,1,0,0,1,1.35,0l1.57,1.58L27,5.51a1,1,0,0,1,1.35,0A0.94,0.94,0,0,1,28.36,6.86Z"/></svg>